<svg id="visual" viewBox="0 0 900 600" width="900" height="600" xmlns="http://www.w3.org/2000/svg" xmlns:xlink="http://www.w3.org/1999/xlink" version="1.1"><rect x="0" y="0" width="900" height="600" fill="#001122"></rect><path d="M483 0L466.5 8.3C450 16.7 417 33.3 408.5 50C400 66.7 416 83.3 418.7 100C421.3 116.7 410.7 133.3 422 150C433.3 166.7 466.7 183.3 480.8 200C495 216.7 490 233.3 478.3 250C466.7 266.7 448.3 283.3 432 300C415.7 316.7 401.3 333.3 410.5 350C419.7 366.7 452.3 383.3 477.3 400C502.3 416.7 519.7 433.3 525 450C530.3 466.7 523.7 483.3 514 500C504.3 516.7 491.7 533.3 488.5 550C485.3 566.7 491.7 583.3 494.8 591.7L498 600L0 600L0 591.7C0 583.3 0 566.7 0 550C0 533.3 0 516.7 0 500C0 483.3 0 466.7 0 450C0 433.3 0 416.7 0 400C0 383.3 0 366.7 0 350C0 333.3 0 316.7 0 300C0 283.3 0 266.7 0 250C0 233.3 0 216.7 0 200C0 183.3 0 166.7 0 150C0 133.3 0 116.7 0 100C0 83.3 0 66.7 0 50C0 33.3 0 16.7 0 8.3L0 0Z" fill="#A8A89E" stroke-linecap="round" stroke-linejoin="miter"></path></svg>